<?xml version="1.0" encoding="UTF-8"?>
<svg version="1.1" xmlns="http://www.w3.org/2000/svg" width="612" height="612">
<path d="M0 0 C201.96 0 403.92 0 612 0 C612 201.96 612 403.92 612 612 C410.04 612 208.08 612 0 612 C0 410.04 0 208.08 0 0 Z " fill="#FEFEFE" transform="translate(0,0)"/>
<path d="M0 0 C2.15744373 0.0135915 4.31491726 0.02302828 6.47239685 0.02850342 C12.15502685 0.05532461 17.83515659 0.1438482 23.51690674 0.24365234 C28.12584956 0.31415737 32.7345332 0.34056646 37.3439188 0.36449051 C42.87526664 0.39426181 48.40635671 0.44453462 53.9375 0.5 C54.97891207 0.50982155 56.02032413 0.5196431 57.09329414 0.52976227 C68.03590805 0.65063851 78.67473408 0.86181083 89.43359375 3.046875 C90.12802078 3.1807663 90.82244781 3.31465759 91.53791809 3.4526062 C108.74509553 7.0203514 126.79057841 15.490497 138.43359375 29.046875 C138.43359375 29.706875 138.43359375 30.366875 138.43359375 31.046875 C139.01753906 31.29179687 139.60148438 31.53671875 140.203125 31.7890625 C151.11174438 37.94068323 159.28113968 56.49969313 162.66015625 68.09375 C162.91539062 69.06828125 163.170625 70.0428125 163.43359375 71.046875 C163.73007812 72.06265625 164.0265625 73.0784375 164.33203125 74.125 C170.71387685 98.83269581 165.59176263 125.09795733 152.8203125 146.85791016 C149.27390927 152.45598258 145.01256508 157.28114804 140.43359375 162.046875 C139.74523437 162.80097656 139.056875 163.55507813 138.34765625 164.33203125 C124.94073098 178.53242761 106.48756894 187.45901495 87.43359375 191.046875 C87.80363525 191.47750244 88.17367676 191.90812988 88.55493164 192.35180664 C91.08715647 195.30185057 93.61421018 198.25554958 96.1171875 201.23046875 C102.23733821 208.47717028 108.55745229 215.4903437 115.09350586 222.36499023 C118.77252799 226.23993367 122.34387782 230.18592341 125.84643555 234.22119141 C127.84704488 236.52246146 129.88700862 238.78646754 131.93359375 241.046875 C134.5653982 243.96176429 137.17646301 246.88960711 139.74609375 249.859375 C141.95774501 252.41168345 144.22365471 254.90169119 146.53515625 257.36328125 C147.08389404 257.94940186 147.63263184 258.53552246 148.19799805 259.1394043 C149.3019266 260.31549978 150.41008729 261.48763895 151.52270508 262.65551758 C155.43359375 266.82567791 155.43359375 266.82567791 155.43359375 269.046875 C147.21010346 269.20945411 138.98729039 269.33363654 130.76258755 269.4095602 C126.94295207 269.44601061 123.12442023 269.4954036 119.30541992 269.57495117 C115.6159649 269.6513147 111.9275675 269.69292687 108.23738289 269.7110157 C106.83350035 269.72389649 105.42967227 269.74905177 104.02624321 269.7869854 C93.03821361 270.07202497 93.03821361 270.07202497 89.03601074 267.51512146 C87.28243916 265.78058903 85.84766132 264.06184624 84.43359375 262.046875 C83.80710937 261.35980469 83.180625 260.67273438 82.53515625 259.96484375 C81.80425781 259.10826172 81.80425781 259.10826172 81.05859375 258.234375 C78.38682833 255.13728369 75.67578997 252.081882 72.93359375 249.046875 C70.26311031 246.08817749 67.61061317 243.11761028 64.99609375 240.109375 C61.33817784 235.90828829 57.57895772 231.80197444 53.82421875 227.6875 C51.915234 225.57888285 50.03906073 223.45221543 48.18359375 221.296875 C44.80864402 217.40575648 41.27586538 213.67166464 37.74609375 209.921875 C31.56471359 203.34446408 25.63143569 196.58896089 19.82080078 189.68310547 C18.82961139 188.51398345 17.82956723 187.35234526 16.82373047 186.19580078 C16.29021973 185.5820459 15.75670898 184.96829102 15.20703125 184.3359375 C14.72153809 183.78115723 14.23604492 183.22637695 13.73583984 182.65478516 C9.12686077 176.96398347 8.8899415 171.3162116 9.09375 164.19921875 C9.91868316 156.54725251 13.62358286 152.37551254 19.3359375 147.4921875 C23.21151985 144.82186074 26.7193437 143.79943267 31.40063477 143.77563477 C32.36256241 143.76544815 33.32449005 143.75526154 34.31556702 143.74476624 C35.3458049 143.74262619 36.37604279 143.74048615 37.4375 143.73828125 C39.64518474 143.71310444 41.85286697 143.68770668 44.06054688 143.66210938 C47.52058154 143.63348979 50.98057225 143.60945971 54.44067383 143.59057617 C57.79402058 143.56872166 61.14683985 143.52925212 64.5 143.48828125 C65.51606827 143.48816544 66.53213654 143.48804962 67.57899475 143.4879303 C82.02369526 143.29212132 93.54208747 139.4360284 104.0390625 129.51953125 C113.11418151 120.14832353 117.44296201 109.58899059 117.93359375 96.484375 C117.4276707 82.62208353 111.5753669 70.20967754 101.4765625 60.79296875 C86.37174536 47.88311548 67.0236478 49.44343931 48.28125 49.4375 C45.56739077 49.42467557 42.85358046 49.4059582 40.13975525 49.38739014 C33.76538266 49.34710561 27.39111163 49.32655498 21.01663154 49.31341624 C13.74910084 49.29745181 6.4817407 49.25899754 -0.78569019 49.21882296 C-15.71253877 49.13680195 -30.6393692 49.08247492 -45.56640625 49.046875 C-44.76464044 44.48164771 -43.0968626 40.77240365 -40.9609375 36.69140625 C-40.41840584 35.63888924 -40.41840584 35.63888924 -39.86491394 34.56510925 C-39.09869147 33.08183218 -38.32944236 31.60011517 -37.55737305 30.11987305 C-36.39363221 27.88762187 -35.23998619 25.65038889 -34.08789062 23.41210938 C-33.33783834 21.96323155 -32.58720483 20.51465443 -31.8359375 19.06640625 C-31.32931328 18.08460136 -31.32931328 18.08460136 -30.81245422 17.08296204 C-30.12526483 15.76890413 -29.41079097 14.46880027 -28.67152405 13.18331909 C-27.47071592 11.01232989 -27.47071592 11.01232989 -26.72288513 8.35891724 C-22.31504327 -2.90362874 -10.16690709 -0.22876238 0 0 Z " fill="#212121" transform="translate(299.56640625,170.953125)"/>
<path d="M0 0 C26.81668623 -0.11686519 53.63333422 -0.20500397 80.45022392 -0.25906086 C92.90212396 -0.28482893 105.35386566 -0.31995305 117.80566406 -0.37719727 C128.66020824 -0.42707464 139.51463773 -0.45930116 150.36929333 -0.47044247 C156.11538781 -0.4769538 161.8611542 -0.49222873 167.6071434 -0.52865028 C173.01949217 -0.56267791 178.43137881 -0.57303914 183.84382439 -0.56553841 C185.82632016 -0.56690991 187.80883195 -0.57680177 189.79123497 -0.59602737 C210.89236261 -0.79056946 210.89236261 -0.79056946 218.91352654 6.81418896 C224.35624597 12.59770613 225.48264209 18.12705546 225.30078125 25.9375 C224.48306376 34.26335079 220.5761117 38.98202245 214.4140625 44.37109375 C209.316132 47.81095948 204.4786668 48.24740292 198.43408203 48.22705078 C197.70168808 48.22734283 196.96929413 48.22763489 196.21470642 48.22793579 C193.81228471 48.22655094 191.41017952 48.21102997 189.0078125 48.1953125 C187.33487111 48.19157936 185.66192752 48.18873381 183.98898315 48.18673706 C179.59954728 48.1791243 175.2102451 48.15949619 170.82086182 48.1373291 C166.33632211 48.11681976 161.85176066 48.10772448 157.3671875 48.09765625 C148.57806385 48.07624796 139.78904859 48.04214065 131 48 C130.75986176 48.98159592 130.51972351 49.96319183 130.27230835 50.97453308 C128.98657662 55.4538086 126.87430419 59.33596083 124.64306641 63.4074707 C123.73208032 65.10457237 122.82326728 66.80284181 121.9163208 68.50210571 C121.43846382 69.39727024 120.96060684 70.29243477 120.46826935 71.21472549 C117.95271969 75.9866676 115.53874796 80.80878189 113.12646484 85.63354492 C112.35971656 87.16623001 112.35971656 87.16623001 111.57747841 88.72987843 C109.95372735 91.97929335 108.33230028 95.22986158 106.7109375 98.48046875 C105.55629905 100.79161789 104.40147971 103.10267666 103.24649048 105.41365051 C100.53846047 110.83310715 97.83220592 116.25344672 95.12686694 121.67424709 C92.07296547 127.79323385 89.01679418 133.9110859 85.96041942 140.02883756 C80.72108614 150.51615493 75.48322589 161.00420683 70.24772644 171.49343872 C66.16899545 179.66422155 62.08406379 187.83187241 58 196 C40.18 196 22.36 196 4 196 C4.78737775 192.85048899 5.5398253 190.67094191 6.95788574 187.83699036 C7.36696167 187.01464401 7.7760376 186.19229767 8.19750977 185.34503174 C8.64731201 184.45104675 9.09711426 183.55706177 9.56054688 182.63598633 C10.03391479 181.68735214 10.50728271 180.73871796 10.99499512 179.76133728 C12.5656747 176.61626589 14.1421112 173.47411896 15.71875 170.33203125 C16.81706451 168.13659526 17.91508252 165.94101091 19.01281738 163.74528503 C21.32052454 159.13143704 23.63091617 154.51894677 25.94335938 149.9074707 C28.88466176 144.04172009 31.82080118 138.17340522 34.75505829 132.30412769 C37.02706341 127.76039185 39.30116778 123.21770929 41.57594299 118.67535973 C42.6575025 116.51539132 43.73859988 114.35519144 44.81919861 112.1947422 C50.48348477 100.87437208 56.20411436 89.59572267 62.18107605 78.43682861 C64.53013749 73.99831344 66.70876995 69.49625476 68.8125 64.9375 C69.52649367 63.40455169 70.24132938 61.87199528 70.95703125 60.33984375 C71.25585205 59.69394287 71.55467285 59.04804199 71.86254883 58.38256836 C73.52612893 54.89794114 75.27314589 51.45370822 77 48 C43.67 48 10.34 48 -24 48 C-22.76964535 44.92411339 -21.66339293 42.21701433 -20.1171875 39.35546875 C-19.75850586 38.68652588 -19.39982422 38.01758301 -19.03027344 37.32836914 C-18.6490332 36.62188232 -18.26779297 35.91539551 -17.875 35.1875 C-13.80410605 27.57400236 -9.89586633 19.8909886 -6.06808472 12.15292358 C-4.84383229 9.68521491 -3.61227771 7.22122032 -2.37988281 4.75756836 C-1.93316223 3.86444443 -1.48644165 2.9713205 -1.02618408 2.0511322 C-0.68754333 1.37425858 -0.34890259 0.69738495 0 0 Z " fill="#212121" transform="translate(170,244)"/>
<path d="M0 0 C1.15683898 3.47051693 0.83846706 4.49368321 0 8 C-0.35580206 9.60380473 -0.7098619 11.20799662 -1.0625 12.8125 C-1.37448212 14.20844918 -1.68680856 15.60432165 -2 17 C0.32851952 18.16425976 1.76280184 18.15457992 4.35791016 18.20532227 C5.25869293 18.22526749 6.15947571 18.24521271 7.08755493 18.26576233 C8.54855118 18.29083107 8.54855118 18.29083107 10.0390625 18.31640625 C11.03505463 18.33718735 12.03104675 18.35796844 13.05722046 18.37937927 C16.24640854 18.44489042 19.43568058 18.50376704 22.625 18.5625 C24.78386293 18.60568373 26.9427173 18.64929797 29.1015625 18.69335938 C34.4009523 18.80057336 39.70042606 18.90233685 45 19 C45 19.33 45 19.66 45 20 C27.18 20 9.36 20 -9 20 C-8.23255451 16.93021805 -7.54403905 14.84858479 -6.15234375 12.109375 C-5.79462891 11.40039062 -5.43691406 10.69140625 -5.06835938 9.9609375 C-4.69517578 9.23132813 -4.32199219 8.50171875 -3.9375 7.75 C-3.56044922 7.00492187 -3.18339844 6.25984375 -2.79492188 5.4921875 C-1.86689327 3.65962469 -0.93392821 1.82956324 0 0 Z " fill="#585858" transform="translate(183,420)"/>
<path d="M0 0 C22.11 0 44.22 0 67 0 C67 0.33 67 0.66 67 1 C65.81395927 1.00546844 65.81395927 1.00546844 64.60395813 1.01104736 C57.14415553 1.04894956 49.68485112 1.10582677 42.22536945 1.18390274 C38.39054491 1.22337442 34.55594987 1.2555641 30.72094727 1.27099609 C27.01833903 1.28616521 23.31636175 1.32061388 19.61403465 1.36830902 C18.20314208 1.38312045 16.79215941 1.39104089 15.38118935 1.39188385 C13.40156133 1.39425557 11.42202188 1.42363126 9.44262695 1.45410156 C8.31677689 1.46298401 7.19092682 1.47186646 6.03096008 1.48101807 C2.3769074 2.10669022 0.67262271 3.49488895 -2 6 C-1.34 4.02 -0.68 2.04 0 0 Z " fill="#F2F2F2" transform="translate(301,292)"/>
<path d="M0 0 C0.66 0.66 1.32 1.32 2 2 C1.9765625 4.3828125 1.9765625 4.3828125 1.625 7.125 C1.51414063 8.03507812 1.40328125 8.94515625 1.2890625 9.8828125 C1.19367188 10.58148438 1.09828125 11.28015625 1 12 C0.34 12 -0.32 12 -1 12 C-1 11.34 -1 10.68 -1 10 C-1.99 10 -2.98 10 -4 10 C-2.8905928 6.51329166 -1.73662334 3.22515763 0 0 Z " fill="#2C2C2C" transform="translate(188,410)"/>
<path d="M0 0 C1.11450049 3.34350146 0.91669067 4.66657937 0 8 C-1.86783571 10.80175356 -3.30274481 12.11192137 -6 14 C-4.50829734 9.0276578 -2.39542583 4.58154261 0 0 Z " fill="#333333" transform="translate(183,420)"/>
<path d="M0 0 C0.66 0 1.32 0 2 0 C1.52797514 4.24822374 -0.96655518 6.19989709 -4 9 C-5.125 4.25 -5.125 4.25 -4 2 C-2.68 2 -1.36 2 0 2 C0 1.34 0 0.68 0 0 Z " fill="#2A2A2A" transform="translate(446,321)"/>
<path d="M0 0 C0.33 0.66 0.66 1.32 1 2 C1.99 1.67 2.98 1.34 4 1 C4 2.32 4 3.64 4 5 C3.34 5 2.68 5 2 5 C2 5.66 2 6.32 2 7 C0.35 7.33 -1.3 7.66 -3 8 C-2.690625 7.236875 -2.38125 6.47375 -2.0625 5.6875 C-1.32106407 3.81210323 -0.63771783 1.91315348 0 0 Z " fill="#353535" transform="translate(227,332)"/>
<path d="M0 0 C2 3 2 3 2 6 C1.01 6 0.02 6 -1 6 C-1.33 7.32 -1.66 8.64 -2 10 C-2.66 10 -3.32 10 -4 10 C-2.8905928 6.51329166 -1.73662334 3.22515763 0 0 Z " fill="#3B3B3B" transform="translate(212,362)"/>
<path d="M0 0 C1.875 0.1875 1.875 0.1875 4 1 C5.25 3.5625 5.25 3.5625 6 6 C5.01 6 4.02 6 3 6 C0 2.66666667 0 2.66666667 0 0 Z " fill="#2C2C2C" transform="translate(400,228)"/>
<path d="M0 0 C2.64752004 2.57784846 4.94432065 4.91648098 7 8 C5.68 8.33 4.36 8.66 3 9 C2.67 8.01 2.34 7.02 2 6 C1.34 5.34 0.68 4.68 0 4 C0 2.68 0 1.36 0 0 Z " fill="#3B3B3B" transform="translate(429,410)"/>
<path d="M0 0 C0.66 1.32 1.32 2.64 2 4 C1.34 4 0.68 4 0 4 C-0.268125 4.94875 -0.53625 5.8975 -0.8125 6.875 C-2 10 -2 10 -5 12 C-3.68938409 7.76570244 -2.05643741 3.92592596 0 0 Z " fill="#4B4B4B" transform="translate(236,314)"/>
<path d="M0 0 C1.98 1.65 3.96 3.3 6 5 C5.67 5.99 5.34 6.98 5 8 C4.01 7.67 3.02 7.34 2 7 C0.8125 3.4375 0.8125 3.4375 0 0 Z " fill="#383838" transform="translate(405,384)"/>
<path d="M0 0 C1.65 0 3.3 0 5 0 C5 0.66 5 1.32 5 2 C5.66 2.33 6.32 2.66 7 3 C6.67 3.99 6.34 4.98 6 6 C3.97945196 4.35830472 1.97956942 2.69088222 0 1 C0 0.67 0 0.34 0 0 Z " fill="#2E2E2E" transform="translate(360,405)"/>
<path d="M0 0 C1.7074998 1.28062485 3.37373596 2.61767557 5 4 C5 4.66 5 5.32 5 6 C4.34 6 3.68 6 3 6 C2.67 6.66 2.34 7.32 2 8 C0.74335022 5.09399739 0 3.20395416 0 0 Z " fill="#323232" transform="translate(415,395)"/>
<path d="M0 0 C0.66 0.66 1.32 1.32 2 2 C-0.97 2.66 -3.94 3.32 -7 4 C-6.67 3.01 -6.34 2.02 -6 1 C-4 0 -4 0 0 0 Z " fill="#343434" transform="translate(400,356)"/>
<path d="M0 0 C0.99 0.33 1.98 0.66 3 1 C2.6875 2.9375 2.6875 2.9375 2 5 C1.01 5.33 0.02 5.66 -1 6 C-1.99 5.34 -2.98 4.68 -4 4 C-2.68 3.34 -1.36 2.68 0 2 C0 1.34 0 0.68 0 0 Z " fill="#333333" transform="translate(388,218)"/>
<path d="M0 0 C1.875 0.3125 1.875 0.3125 4 1 C4.66 1.99 5.32 2.98 6 4 C5.67 4.99 5.34 5.98 5 7 C3.29115995 5.37660195 1.62553283 3.70680947 0 2 C0 1.34 0 0.68 0 0 Z " fill="#353535" transform="translate(340,382)"/>
<path d="M0 0 C0.66 0.99 1.32 1.98 2 3 C1.34 4.32 0.68 5.64 0 7 C-0.66 7 -1.32 7 -2 7 C-2.33 5.68 -2.66 4.36 -3 3 C-2.34 3 -1.68 3 -1 3 C-0.67 2.01 -0.34 1.02 0 0 Z " fill="#272727" transform="translate(292,305)"/>
<path d="M0 0 C0.33 0.66 0.66 1.32 1 2 C3.01669827 3.13350534 3.01669827 3.13350534 5 4 C5 4.66 5 5.32 5 6 C4.34 6 3.68 6 3 6 C2.67 6.66 2.34 7.32 2 8 C1.87625 7.195625 1.7525 6.39125 1.625 5.5625 C1.315625 4.2940625 1.315625 4.2940625 1 3 C0.34 2.67 -0.32 2.34 -1 2 C-0.67 1.34 -0.34 0.68 0 0 Z " fill="#2A2A2A" transform="translate(242,303)"/>
<path d="M0 0 C0.33 0.66 0.66 1.32 1 2 C1.66 2.33 2.32 2.66 3 3 C2.01 3.495 2.01 3.495 1 4 C-0.13350534 6.01669827 -0.13350534 6.01669827 -1 8 C-1.66 8 -2.32 8 -3 8 C-1.125 2.25 -1.125 2.25 0 0 Z " fill="#373737" transform="translate(196,394)"/>
</svg>
